<svg xmlns="http://www.w3.org/2000/svg" xmlns:xlink="http://www.w3.org/1999/xlink" width="500" zoomAndPan="magnify" viewBox="0 0 375 374.999991" height="500" preserveAspectRatio="xMidYMid meet" version="1.0"><defs><g/></defs><g fill="#000000" fill-opacity="1"><g transform="translate(71.453232, 289.194617)"><g><path d="M 150.015625 -70.9375 C 134.804688 -70.9375 120.171875 -70.570312 106.109375 -69.84375 C 92.046875 -69.113281 78.238281 -67.8125 64.6875 -65.9375 C 62.601562 -59.269531 60.414062 -52.8125 58.125 -46.5625 C 55.832031 -40.3125 53.4375 -34.582031 50.9375 -29.375 C 48.4375 -24.164062 45.882812 -19.632812 43.28125 -15.78125 C 40.675781 -11.925781 38.019531 -9.0625 35.3125 -7.1875 C 25.519531 -5.519531 18.332031 -5.101562 13.75 -5.9375 C 9.164062 -6.769531 6.664062 -9.269531 6.25 -13.4375 C 6.664062 -14.0625 7.1875 -15.101562 7.8125 -16.5625 C 8.4375 -18.019531 9.0625 -20.207031 9.6875 -23.125 C 14.0625 -28.539062 17.550781 -33.695312 20.15625 -38.59375 C 22.757812 -43.488281 25 -47.707031 26.875 -51.25 C 37.289062 -76.46875 47.5 -102.460938 57.5 -129.234375 C 67.5 -156.003906 78.023438 -184.078125 89.078125 -213.453125 C 99.078125 -219.910156 110.535156 -219.492188 123.453125 -212.203125 C 134.492188 -183.453125 145.742188 -155.117188 157.203125 -127.203125 C 168.660156 -99.285156 180.535156 -71.570312 192.828125 -44.0625 C 195.328125 -38.019531 197.722656 -32.5 200.015625 -27.5 C 202.304688 -22.5 204.390625 -18.226562 206.265625 -14.6875 C 207.515625 -12.8125 207.410156 -10.726562 205.953125 -8.4375 C 204.492188 -6.144531 201.367188 -5 196.578125 -5 C 185.535156 -5 177.773438 -6.039062 173.296875 -8.125 C 168.816406 -10.207031 165.953125 -12.8125 164.703125 -15.9375 C 164.285156 -18.019531 163.921875 -20.675781 163.609375 -23.90625 C 163.296875 -27.132812 162.617188 -31.039062 161.578125 -35.625 C 160.535156 -40.207031 159.128906 -45.414062 157.359375 -51.25 C 155.585938 -57.082031 153.140625 -63.644531 150.015625 -70.9375 Z M 141.578125 -92.828125 C 137.410156 -106.367188 132.359375 -119.703125 126.421875 -132.828125 C 120.484375 -145.953125 114.179688 -160.222656 107.515625 -175.640625 C 103.140625 -165.222656 98.140625 -153.140625 92.515625 -139.390625 C 86.890625 -125.640625 80.425781 -109.285156 73.125 -90.328125 C 87.300781 -90.328125 99.960938 -90.585938 111.109375 -91.109375 C 122.253906 -91.628906 132.410156 -92.203125 141.578125 -92.828125 Z M 141.578125 -92.828125 "/></g></g></g><g fill="#ff3131" fill-opacity="1"><g transform="translate(218.161827, 285.271989)"><g><path d="M 28.203125 -5.953125 C 28.410156 -10.335938 28.617188 -17.125 28.828125 -26.3125 C 29.035156 -35.507812 29.191406 -46.425781 29.296875 -59.0625 C 29.398438 -71.695312 29.453125 -85.582031 29.453125 -100.71875 C 29.453125 -115.863281 29.453125 -131.582031 29.453125 -147.875 C 29.453125 -150.382812 29.398438 -153.203125 29.296875 -156.328125 C 29.191406 -159.460938 28.828125 -163.222656 28.203125 -167.609375 C 26.941406 -189.335938 26.941406 -204.378906 28.203125 -212.734375 C 28.203125 -214.398438 29.035156 -215.234375 30.703125 -215.234375 C 34.878906 -214.609375 38.796875 -213.929688 42.453125 -213.203125 C 46.109375 -212.472656 49.503906 -211.476562 52.640625 -210.21875 C 63.078125 -208.96875 67.148438 -206.566406 64.859375 -203.015625 C 63.804688 -200.296875 62.601562 -193.867188 61.25 -183.734375 C 59.894531 -173.609375 58.585938 -161.078125 57.328125 -146.140625 C 56.078125 -131.210938 54.984375 -114.710938 54.046875 -96.640625 C 53.109375 -78.578125 52.640625 -60.148438 52.640625 -41.359375 L 53.890625 -25.6875 C 53.890625 -23.1875 54.097656 -20.734375 54.515625 -18.328125 C 54.929688 -15.921875 55.140625 -13.882812 55.140625 -12.21875 C 54.515625 -10.34375 52.945312 -8.566406 50.4375 -6.890625 C 47.9375 -5.222656 44.597656 -4.078125 40.421875 -3.453125 C 32.273438 -3.453125 28.203125 -4.285156 28.203125 -5.953125 Z M 28.203125 -5.953125 "/></g></g></g></svg>