<svg xmlns="http://www.w3.org/2000/svg" xmlns:xlink="http://www.w3.org/1999/xlink" width="500" zoomAndPan="magnify" viewBox="0 0 375 374.999991" height="500" preserveAspectRatio="xMidYMid meet" version="1.0"><path fill="#000000" d="M 187.355469 23.4375 C 209.523438 23.4375 231 27.757812 251.160156 36.292969 C 270.585938 44.53125 288.109375 56.324219 303.144531 71.375 L 303.621094 71.851562 L 304.132812 72.328125 L 304.425781 72.582031 C 318.988281 87.632812 330.4375 104.917969 338.488281 124.070312 C 346.9375 144.175781 351.183594 165.453125 351.183594 187.351562 C 351.183594 204.601562 348.476562 221.742188 343.097656 238.292969 L 343.0625 238.367188 L 343.023438 238.4375 C 338.378906 253.050781 331.316406 267.261719 322.0625 280.589844 L 317.890625 286.632812 L 317.890625 293.957031 L 342.347656 351.378906 L 187.28125 351.378906 C 165.074219 351.378906 143.597656 347.058594 123.476562 338.5625 C 103.976562 330.320312 86.5625 318.53125 71.707031 303.476562 L 66 297.730469 C 53.523438 283.960938 43.535156 268.359375 36.257812 251.21875 C 27.660156 230.96875 23.304688 209.472656 23.304688 187.390625 C 23.304688 165.34375 27.660156 143.882812 36.257812 123.707031 C 44.5625 104.222656 56.453125 86.644531 71.5625 71.484375 L 77.269531 65.769531 C 90.914062 53.429688 106.425781 43.542969 123.402344 36.363281 C 143.742188 27.757812 165.21875 23.4375 187.355469 23.4375 Z M 187.355469 0 C 135.585938 0 88.757812 20.984375 54.914062 54.785156 L 55.132812 54.894531 C 21.183594 88.84375 0 135.644531 0 187.316406 C 0 239.101562 21.183594 286.011719 54.914062 319.882812 L 55.132812 319.882812 C 88.792969 353.980469 135.621094 374.746094 187.390625 374.746094 L 351.457031 374.746094 C 359.433594 374.746094 365.871094 368.480469 365.871094 360.3125 L 341.414062 293.886719 C 351.621094 279.125 359.925781 262.867188 365.453125 245.46875 C 371.378906 227.160156 374.671875 207.605469 374.671875 187.316406 C 374.671875 136.011719 353.890625 89.539062 320.671875 55.554688 L 319.753906 54.75 C 285.839844 20.984375 239.230469 0 187.355469 0 Z M 187.355469 0 " fill-opacity="0.4" fill-rule="nonzero"/><path fill="#000000" d="M 187.5 77.179688 C 248.445312 77.179688 297.847656 126.582031 297.847656 187.523438 C 297.847656 248.464844 248.445312 297.871094 187.5 297.871094 C 126.558594 297.871094 77.15625 248.46875 77.15625 187.523438 C 77.15625 126.582031 126.558594 77.179688 187.5 77.179688 Z M 224.085938 196.722656 L 150.917969 196.722656 C 152.949219 243.660156 170.273438 279.480469 187.5 279.480469 C 204.730469 279.480469 222.054688 243.660156 224.085938 196.722656 Z M 132.507812 196.722656 L 96 196.722656 C 99.378906 230.683594 121.226562 259.207031 151.359375 272.105469 C 140.53125 253.625 133.671875 226.769531 132.507812 196.722656 Z M 279 196.722656 L 242.492188 196.722656 C 241.332031 226.777344 234.472656 253.625 223.648438 272.101562 C 253.78125 259.214844 275.628906 230.683594 279 196.722656 Z M 151.351562 102.949219 L 150.332031 103.386719 C 120.71875 116.480469 99.324219 144.75 95.996094 178.328125 L 132.507812 178.328125 C 133.671875 148.277344 140.515625 121.425781 151.351562 102.949219 Z M 187.5 95.570312 L 186.8125 95.589844 C 169.816406 96.527344 152.925781 132.023438 150.917969 178.328125 L 224.085938 178.328125 C 222.054688 131.394531 204.726562 95.570312 187.5 95.570312 Z M 223.648438 102.945312 L 224.324219 104.117188 C 234.769531 122.546875 241.355469 148.902344 242.492188 178.328125 L 279 178.328125 C 275.628906 144.367188 253.773438 115.839844 223.648438 102.945312 Z M 223.648438 102.945312 " fill-opacity="0.4" fill-rule="nonzero"/></svg>