<svg xmlns="http://www.w3.org/2000/svg" xmlns:xlink="http://www.w3.org/1999/xlink" width="500" zoomAndPan="magnify" viewBox="0 0 375 374.999991" height="500" preserveAspectRatio="xMidYMid meet" version="1.0"><defs><clipPath id="e4e88ab362"><path d="M 42.984375 32.398438 L 342.984375 32.398438 L 342.984375 332.398438 L 42.984375 332.398438 Z M 42.984375 32.398438 " clip-rule="nonzero"/></clipPath></defs><g clip-path="url(#e4e88ab362)"><path fill="#ffffff" d="M 192.867188 51.148438 C 210.605469 51.148438 227.785156 54.605469 243.910156 61.429688 C 259.453125 68.023438 273.472656 77.457031 285.5 89.496094 L 285.882812 89.878906 L 286.292969 90.257812 L 286.527344 90.464844 C 298.175781 102.503906 307.335938 116.332031 313.773438 131.65625 C 320.535156 147.738281 323.929688 164.761719 323.929688 182.28125 C 323.929688 196.078125 321.765625 209.789062 317.460938 223.03125 L 317.433594 223.089844 L 317.402344 223.148438 C 313.6875 234.839844 308.039062 246.207031 300.632812 256.871094 L 297.296875 261.703125 L 297.296875 267.5625 L 316.863281 313.5 L 192.808594 313.5 C 175.042969 313.5 157.863281 310.042969 141.765625 303.246094 C 126.164062 296.65625 112.234375 287.222656 100.351562 275.179688 L 95.785156 270.582031 C 85.804688 259.566406 77.8125 247.085938 71.988281 233.375 C 65.113281 217.171875 61.628906 199.976562 61.628906 182.308594 C 61.628906 164.671875 65.113281 147.503906 71.988281 131.363281 C 78.632812 115.777344 88.144531 101.714844 100.234375 89.585938 L 104.800781 85.015625 C 115.714844 75.140625 128.125 67.230469 141.707031 61.488281 C 157.980469 54.605469 175.160156 51.148438 192.867188 51.148438 Z M 192.867188 32.398438 C 151.453125 32.398438 113.988281 49.183594 86.917969 76.226562 L 87.09375 76.3125 C 59.929688 103.472656 42.984375 140.914062 42.984375 182.25 C 42.984375 223.679688 59.929688 261.207031 86.917969 288.304688 L 87.09375 288.304688 C 114.019531 315.582031 151.480469 332.195312 192.898438 332.195312 L 324.148438 332.195312 C 330.53125 332.195312 335.679688 327.183594 335.679688 320.648438 L 316.117188 267.507812 C 324.28125 255.699219 330.925781 242.691406 335.347656 228.773438 C 340.085938 214.125 342.722656 198.480469 342.722656 182.25 C 342.722656 141.207031 326.097656 104.027344 299.523438 76.839844 L 298.789062 76.195312 C 271.65625 49.183594 234.371094 32.398438 192.867188 32.398438 Z M 192.867188 32.398438 " fill-opacity="0.4" fill-rule="nonzero"/></g><path fill="#ffffff" d="M 192.984375 94.140625 C 241.742188 94.140625 281.261719 133.664062 281.261719 182.417969 C 281.261719 231.171875 241.742188 270.695312 192.984375 270.695312 C 144.230469 270.695312 104.710938 231.171875 104.710938 182.417969 C 104.710938 133.664062 144.230469 94.140625 192.984375 94.140625 Z M 222.253906 189.777344 L 163.71875 189.777344 C 165.34375 227.324219 179.203125 255.980469 192.984375 255.980469 C 206.769531 255.980469 220.628906 227.324219 222.253906 189.777344 Z M 148.992188 189.777344 L 119.785156 189.777344 C 122.488281 216.945312 139.964844 239.761719 164.070312 250.082031 C 155.410156 235.296875 149.921875 213.8125 148.992188 189.777344 Z M 266.183594 189.777344 L 236.980469 189.777344 C 236.050781 213.820312 230.5625 235.300781 221.902344 250.078125 C 246.007812 239.769531 263.488281 216.945312 266.183594 189.777344 Z M 164.066406 114.757812 L 163.25 115.109375 C 139.558594 125.582031 122.445312 148.195312 119.78125 175.058594 L 148.992188 175.058594 C 149.921875 151.019531 155.398438 129.539062 164.066406 114.757812 Z M 192.984375 108.855469 L 192.433594 108.867188 C 178.839844 109.621094 165.324219 138.015625 163.71875 175.0625 L 222.253906 175.0625 C 220.628906 137.515625 206.765625 108.855469 192.984375 108.855469 Z M 221.902344 114.753906 L 222.441406 115.691406 C 230.800781 130.433594 236.070312 151.519531 236.980469 175.0625 L 266.183594 175.0625 C 263.488281 147.890625 246.003906 125.070312 221.902344 114.753906 Z M 221.902344 114.753906 " fill-opacity="0.4" fill-rule="nonzero"/></svg>